<svg width="116" height="35" viewBox="0 0 116 35" fill="none" xmlns="http://www.w3.org/2000/svg">
<circle cx="18.0165" cy="17.61" r="16.8747" fill="#141517" stroke="#F4B41A"/>
<circle cx="18.0165" cy="17.6101" r="11.227" fill="#141517" stroke="#F4B41A"/>
<circle cx="18.0165" cy="17.6099" r="4.61952" fill="#141517" stroke="#F4B41A"/>
<path d="M48.7672 27.1234C48.1752 27.1234 47.6472 27.0834 47.1832 27.0034C46.7352 26.9234 46.3432 26.7874 46.0072 26.5954C45.6872 26.4034 45.4232 26.1474 45.2152 25.8274C45.0072 25.4914 44.8472 25.0834 44.7352 24.6034C44.6392 24.1234 44.5912 23.5474 44.5912 22.8754V11.3074C44.5912 11.0354 44.6152 10.7954 44.6632 10.5874C44.7272 10.3634 44.8552 10.1874 45.0472 10.0594C45.2552 9.91536 45.5832 9.84336 46.0312 9.84336C46.4792 9.84336 46.7992 9.90736 46.9912 10.0354C47.1992 10.1634 47.3272 10.3394 47.3752 10.5634C47.4392 10.7714 47.4712 11.0114 47.4712 11.2834V22.7554C47.4712 23.0594 47.4872 23.3154 47.5192 23.5234C47.5672 23.7154 47.6392 23.8754 47.7352 24.0034C47.8472 24.1154 47.9832 24.1954 48.1432 24.2434C48.3192 24.2914 48.5272 24.3154 48.7672 24.3154C48.9752 24.3154 49.1592 24.3394 49.3192 24.3874C49.4952 24.4354 49.6312 24.5554 49.7272 24.7474C49.8392 24.9394 49.8952 25.2514 49.8952 25.6834C49.8952 26.1314 49.8392 26.4594 49.7272 26.6674C49.6312 26.8754 49.4952 27.0034 49.3192 27.0514C49.1432 27.0994 48.9592 27.1234 48.7672 27.1234ZM52.9196 27.1234C52.4716 27.1234 52.1436 27.0514 51.9356 26.9074C51.7436 26.7794 51.6236 26.6034 51.5756 26.3794C51.5276 26.1554 51.5036 25.9154 51.5036 25.6594V11.3314C51.5036 11.0594 51.5276 10.8194 51.5756 10.6114C51.6396 10.3874 51.7676 10.2114 51.9596 10.0834C52.1676 9.95536 52.4956 9.89136 52.9436 9.89136C53.3916 9.89136 53.7116 9.96336 53.9036 10.1074C54.1116 10.2354 54.2396 10.4114 54.2876 10.6354C54.3516 10.8434 54.3836 11.0834 54.3836 11.3554V16.7794C54.7036 16.4114 55.1116 16.0754 55.6076 15.7714C56.1196 15.4514 56.7356 15.2914 57.4556 15.2914C58.4316 15.2914 59.3036 15.5314 60.0716 16.0114C60.8396 16.4754 61.4476 17.1234 61.8956 17.9554C62.3436 18.7874 62.5676 19.7634 62.5676 20.8834V25.6834C62.5676 25.9394 62.5436 26.1794 62.4956 26.4034C62.4476 26.6114 62.3196 26.7794 62.1116 26.9074C61.9196 27.0354 61.5996 27.0994 61.1516 27.0994C60.7036 27.0994 60.3756 27.0354 60.1676 26.9074C59.9596 26.7794 59.8316 26.6114 59.7836 26.4034C59.7356 26.1794 59.7116 25.9234 59.7116 25.6354V20.8594C59.7116 20.2994 59.6156 19.8114 59.4236 19.3954C59.2316 18.9794 58.9436 18.6594 58.5596 18.4354C58.1916 18.1954 57.7276 18.0754 57.1676 18.0754C56.4156 18.0754 55.7836 18.2994 55.2716 18.7474C54.7596 19.1794 54.4636 19.7394 54.3836 20.4274V25.6834C54.3836 25.9394 54.3516 26.1794 54.2876 26.4034C54.2396 26.6274 54.1116 26.8034 53.9036 26.9314C53.7116 27.0594 53.3836 27.1234 52.9196 27.1234ZM70.1045 27.2674C69.3365 27.2674 68.5845 27.1234 67.8485 26.8354C67.1285 26.5314 66.4725 26.1074 65.8805 25.5634C65.3045 25.0194 64.8405 24.3794 64.4885 23.6434C64.1525 22.9074 63.9845 22.0994 63.9845 21.2194C63.9845 20.3714 64.1445 19.5794 64.4645 18.8434C64.7845 18.1074 65.2245 17.4594 65.7845 16.8994C66.3445 16.3394 66.9845 15.9074 67.7045 15.6034C68.4405 15.2834 69.2245 15.1234 70.0565 15.1234C71.1765 15.1234 72.1925 15.3954 73.1045 15.9394C74.0165 16.4674 74.7445 17.1874 75.2885 18.0994C75.8325 19.0114 76.1045 20.0434 76.1045 21.1954C76.1045 22.1074 75.9365 22.9394 75.6005 23.6914C75.2645 24.4274 74.8085 25.0674 74.2325 25.6114C73.6565 26.1394 73.0085 26.5474 72.2885 26.8354C71.5845 27.1234 70.8565 27.2674 70.1045 27.2674ZM70.0565 24.4354C70.5845 24.4354 71.0885 24.3074 71.5685 24.0514C72.0645 23.7794 72.4645 23.3954 72.7685 22.8994C73.0885 22.4034 73.2485 21.8194 73.2485 21.1474C73.2485 20.5234 73.1045 19.9714 72.8165 19.4914C72.5445 19.0114 72.1685 18.6354 71.6885 18.3634C71.2085 18.0914 70.6565 17.9554 70.0325 17.9554C69.4405 17.9554 68.9045 18.0994 68.4245 18.3874C67.9445 18.6594 67.5605 19.0434 67.2725 19.5394C67.0005 20.0194 66.8645 20.5634 66.8645 21.1714C66.8645 21.8434 67.0165 22.4274 67.3205 22.9234C67.6245 23.4034 68.0165 23.7794 68.4965 24.0514C68.9925 24.3074 69.5125 24.4354 70.0565 24.4354ZM83.5108 27.2674C82.7428 27.2674 81.9908 27.1234 81.2548 26.8354C80.5348 26.5314 79.8788 26.1074 79.2868 25.5634C78.7108 25.0194 78.2468 24.3794 77.8948 23.6434C77.5588 22.9074 77.3908 22.0994 77.3908 21.2194C77.3908 20.3714 77.5508 19.5794 77.8708 18.8434C78.1908 18.1074 78.6308 17.4594 79.1908 16.8994C79.7508 16.3394 80.3908 15.9074 81.1108 15.6034C81.8468 15.2834 82.6308 15.1234 83.4628 15.1234C84.5828 15.1234 85.5988 15.3954 86.5108 15.9394C87.4228 16.4674 88.1508 17.1874 88.6948 18.0994C89.2388 19.0114 89.5108 20.0434 89.5108 21.1954C89.5108 22.1074 89.3428 22.9394 89.0068 23.6914C88.6708 24.4274 88.2148 25.0674 87.6388 25.6114C87.0628 26.1394 86.4148 26.5474 85.6948 26.8354C84.9908 27.1234 84.2628 27.2674 83.5108 27.2674ZM83.4628 24.4354C83.9908 24.4354 84.4948 24.3074 84.9748 24.0514C85.4708 23.7794 85.8708 23.3954 86.1748 22.8994C86.4948 22.4034 86.6548 21.8194 86.6548 21.1474C86.6548 20.5234 86.5108 19.9714 86.2228 19.4914C85.9508 19.0114 85.5748 18.6354 85.0948 18.3634C84.6148 18.0914 84.0628 17.9554 83.4388 17.9554C82.8468 17.9554 82.3108 18.0994 81.8308 18.3874C81.3508 18.6594 80.9668 19.0434 80.6788 19.5394C80.4068 20.0194 80.2708 20.5634 80.2708 21.1714C80.2708 21.8434 80.4228 22.4274 80.7268 22.9234C81.0308 23.4034 81.4228 23.7794 81.9028 24.0514C82.3988 24.3074 82.9188 24.4354 83.4628 24.4354ZM97.469 26.9554C96.685 26.9554 95.981 26.8114 95.357 26.5234C94.749 26.2194 94.229 25.8034 93.797 25.2754C93.381 24.7314 93.061 24.1074 92.837 23.4034C92.629 22.6994 92.525 21.9394 92.525 21.1234C92.541 20.3074 92.661 19.5474 92.885 18.8434C93.109 18.1234 93.429 17.4994 93.845 16.9714C94.277 16.4434 94.797 16.0274 95.405 15.7234C96.013 15.4194 96.701 15.2674 97.469 15.2674C98.205 15.2674 98.893 15.4194 99.533 15.7234C100.189 16.0274 100.765 16.4514 101.261 16.9954C101.773 17.5394 102.173 18.1714 102.461 18.8914C102.749 19.5954 102.893 20.3554 102.893 21.1714C102.893 22.0034 102.749 22.7714 102.461 23.4754C102.173 24.1794 101.781 24.7954 101.285 25.3234C100.789 25.8354 100.213 26.2354 99.557 26.5234C98.901 26.8114 98.205 26.9554 97.469 26.9554ZM92.669 31.9474C92.237 31.9474 91.917 31.8834 91.709 31.7554C91.501 31.6274 91.373 31.4594 91.325 31.2514C91.277 31.0434 91.253 30.8034 91.253 30.5314V16.7314C91.253 16.4594 91.277 16.2194 91.325 16.0114C91.373 15.8034 91.493 15.6354 91.685 15.5074C91.893 15.3634 92.213 15.2914 92.645 15.2914C93.061 15.2914 93.389 15.3554 93.629 15.4834C93.869 15.6114 94.029 15.8274 94.109 16.1314V30.5074C94.125 30.7794 94.101 31.0194 94.037 31.2274C93.989 31.4514 93.861 31.6274 93.653 31.7554C93.445 31.8834 93.117 31.9474 92.669 31.9474ZM97.085 24.2674C97.645 24.2674 98.149 24.1394 98.597 23.8834C99.045 23.6114 99.397 23.2434 99.653 22.7794C99.925 22.2994 100.061 21.7634 100.061 21.1714C100.061 20.5634 99.925 20.0274 99.653 19.5634C99.397 19.0994 99.045 18.7394 98.597 18.4834C98.149 18.2114 97.645 18.0754 97.085 18.0754C96.541 18.0754 96.045 18.2114 95.597 18.4834C95.149 18.7554 94.789 19.1234 94.517 19.5874C94.261 20.0354 94.133 20.5634 94.133 21.1714C94.133 21.7634 94.261 22.2994 94.517 22.7794C94.789 23.2434 95.149 23.6114 95.597 23.8834C96.045 24.1394 96.541 24.2674 97.085 24.2674ZM109.024 27.2674C108.608 27.2674 108.168 27.2194 107.704 27.1234C107.24 27.0434 106.792 26.9234 106.36 26.7634C105.928 26.5874 105.552 26.3874 105.232 26.1634C104.928 25.9234 104.736 25.6594 104.656 25.3714C104.592 25.2114 104.568 25.0594 104.584 24.9154C104.6 24.7554 104.648 24.5954 104.728 24.4354C104.808 24.2594 104.928 24.0834 105.088 23.9074C105.232 23.7314 105.376 23.6354 105.52 23.6194C105.68 23.5874 105.88 23.6354 106.12 23.7634C106.328 23.8434 106.552 23.9474 106.792 24.0754C107.048 24.2034 107.304 24.3314 107.56 24.4594C107.832 24.5874 108.104 24.6914 108.376 24.7714C108.664 24.8514 108.944 24.8914 109.216 24.8914C109.808 24.8914 110.28 24.7954 110.632 24.6034C110.984 24.3954 111.16 24.1074 111.16 23.7394C111.16 23.5314 111.104 23.3474 110.992 23.1874C110.88 23.0274 110.728 22.8994 110.536 22.8034C110.36 22.6914 110.144 22.5954 109.888 22.5154C109.648 22.4194 109.384 22.3394 109.096 22.2754C108.824 22.1954 108.536 22.1074 108.232 22.0114C107.832 21.8994 107.432 21.7634 107.032 21.6034C106.632 21.4434 106.272 21.2354 105.952 20.9794C105.648 20.7234 105.4 20.4034 105.208 20.0194C105.016 19.6354 104.92 19.1554 104.92 18.5794C104.92 17.8594 105.088 17.2514 105.424 16.7554C105.776 16.2434 106.28 15.8514 106.936 15.5794C107.592 15.3074 108.384 15.1714 109.312 15.1714C109.632 15.1714 109.936 15.1954 110.224 15.2434C110.528 15.2914 110.816 15.3634 111.088 15.4594C111.376 15.5394 111.648 15.6434 111.904 15.7714C112.176 15.8994 112.432 16.0434 112.672 16.2034C113.072 16.4274 113.28 16.6914 113.296 16.9954C113.312 17.2834 113.2 17.5954 112.96 17.9314C112.784 18.1554 112.608 18.3154 112.432 18.4114C112.256 18.4914 112.072 18.4914 111.88 18.4114C111.624 18.2834 111.344 18.1474 111.04 18.0034C110.752 17.8434 110.448 17.7074 110.128 17.5954C109.824 17.4834 109.504 17.4274 109.168 17.4274C108.848 17.4274 108.56 17.4754 108.304 17.5714C108.048 17.6674 107.856 17.8034 107.728 17.9794C107.6 18.1554 107.536 18.3634 107.536 18.6034C107.536 18.8274 107.6 19.0114 107.728 19.1554C107.856 19.2994 108.024 19.4194 108.232 19.5154C108.44 19.6114 108.688 19.6994 108.976 19.7794C109.264 19.8434 109.568 19.9074 109.888 19.9714C110.336 20.0674 110.792 20.1874 111.256 20.3314C111.72 20.4754 112.144 20.6754 112.528 20.9314C112.928 21.1874 113.248 21.5314 113.488 21.9634C113.728 22.3794 113.848 22.9234 113.848 23.5954C113.848 24.7634 113.416 25.6674 112.552 26.3074C111.704 26.9474 110.528 27.2674 109.024 27.2674Z" fill="white"/>
</svg>
